<mxfile host="app.diagrams.net" modified="2023-10-16T00:33:00.244Z" agent="Mozilla/5.0 (Windows NT 10.0; Win64; x64; rv:109.0) Gecko/20100101 Firefox/118.0" etag="-8qkICTjGCxHfQ5ekzye" version="22.0.4" type="github">
  <diagram name="Page-1" id="AFOPoMAikEUmEF4K23Jo">
    <mxGraphModel dx="1270" dy="756" grid="1" gridSize="10" guides="1" tooltips="1" connect="1" arrows="1" fold="1" page="1" pageScale="1" pageWidth="850" pageHeight="1100" math="0" shadow="0">
      <root>
        <mxCell id="0" />
        <mxCell id="1" parent="0" />
        <mxCell id="LwAvh3vYZ40_kspi_JeO-1" value="" style="shape=cube;whiteSpace=wrap;html=1;boundedLbl=1;backgroundOutline=1;darkOpacity=0.05;darkOpacity2=0.1;" vertex="1" parent="1">
          <mxGeometry x="170" y="130" width="190" height="300" as="geometry" />
        </mxCell>
        <mxCell id="LwAvh3vYZ40_kspi_JeO-2" value="GitHub CI/CD Machine" style="text;html=1;strokeColor=none;fillColor=none;align=center;verticalAlign=middle;whiteSpace=wrap;rounded=0;" vertex="1" parent="1">
          <mxGeometry x="190" y="160" width="170" height="40" as="geometry" />
        </mxCell>
        <mxCell id="LwAvh3vYZ40_kspi_JeO-3" value="app.yaml" style="shape=note;whiteSpace=wrap;html=1;backgroundOutline=1;darkOpacity=0.05;" vertex="1" parent="1">
          <mxGeometry x="235" y="230" width="80" height="100" as="geometry" />
        </mxCell>
        <mxCell id="LwAvh3vYZ40_kspi_JeO-4" value="$ gcloud app deploy" style="text;html=1;align=center;verticalAlign=middle;resizable=0;points=[];autosize=1;strokeColor=none;fillColor=none;" vertex="1" parent="1">
          <mxGeometry x="210" y="200" width="130" height="30" as="geometry" />
        </mxCell>
        <mxCell id="LwAvh3vYZ40_kspi_JeO-6" value="" style="edgeStyle=none;rounded=0;orthogonalLoop=1;jettySize=auto;html=1;" edge="1" parent="1" source="LwAvh3vYZ40_kspi_JeO-5" target="LwAvh3vYZ40_kspi_JeO-3">
          <mxGeometry relative="1" as="geometry" />
        </mxCell>
        <mxCell id="LwAvh3vYZ40_kspi_JeO-5" value="Google Cloud credentials" style="shape=note;whiteSpace=wrap;html=1;backgroundOutline=1;darkOpacity=0.05;size=15;" vertex="1" parent="1">
          <mxGeometry x="217.5" y="360" width="115" height="60" as="geometry" />
        </mxCell>
        <mxCell id="LwAvh3vYZ40_kspi_JeO-7" style="rounded=0;orthogonalLoop=1;jettySize=auto;html=1;exitX=0;exitY=0;exitDx=80;exitDy=65;exitPerimeter=0;entryX=0;entryY=0;entryDx=190;entryDy=160;entryPerimeter=0;dashed=1;dashPattern=8 8;endArrow=none;endFill=0;" edge="1" parent="1" source="LwAvh3vYZ40_kspi_JeO-3" target="LwAvh3vYZ40_kspi_JeO-1">
          <mxGeometry relative="1" as="geometry" />
        </mxCell>
        <mxCell id="LwAvh3vYZ40_kspi_JeO-8" value="GCloud CLI" style="text;html=1;strokeColor=none;fillColor=none;align=center;verticalAlign=middle;whiteSpace=wrap;rounded=0;" vertex="1" parent="1">
          <mxGeometry x="350" y="270" width="100" height="30" as="geometry" />
        </mxCell>
        <mxCell id="LwAvh3vYZ40_kspi_JeO-9" value="" style="shape=cube;whiteSpace=wrap;html=1;boundedLbl=1;backgroundOutline=1;darkOpacity=0.05;darkOpacity2=0.1;" vertex="1" parent="1">
          <mxGeometry x="480" y="130" width="460" height="300" as="geometry" />
        </mxCell>
        <mxCell id="LwAvh3vYZ40_kspi_JeO-10" value="Google Cloud" style="text;html=1;align=center;verticalAlign=middle;resizable=0;points=[];autosize=1;strokeColor=none;fillColor=none;" vertex="1" parent="1">
          <mxGeometry x="510" y="150" width="100" height="30" as="geometry" />
        </mxCell>
        <mxCell id="LwAvh3vYZ40_kspi_JeO-12" style="edgeStyle=none;rounded=0;orthogonalLoop=1;jettySize=auto;html=1;exitX=1;exitY=0.5;exitDx=0;exitDy=0;entryX=-0.002;entryY=0.5;entryDx=0;entryDy=0;entryPerimeter=0;dashed=1;" edge="1" parent="1" source="LwAvh3vYZ40_kspi_JeO-8" target="LwAvh3vYZ40_kspi_JeO-9">
          <mxGeometry relative="1" as="geometry" />
        </mxCell>
        <mxCell id="LwAvh3vYZ40_kspi_JeO-13" value="" style="shape=cube;whiteSpace=wrap;html=1;boundedLbl=1;backgroundOutline=1;darkOpacity=0.05;darkOpacity2=0.1;" vertex="1" parent="1">
          <mxGeometry x="530" y="190" width="200" height="230" as="geometry" />
        </mxCell>
        <mxCell id="LwAvh3vYZ40_kspi_JeO-14" value="EDMap Service App Engine" style="text;html=1;align=center;verticalAlign=middle;resizable=0;points=[];autosize=1;strokeColor=none;fillColor=none;" vertex="1" parent="1">
          <mxGeometry x="550" y="210" width="170" height="30" as="geometry" />
        </mxCell>
        <mxCell id="LwAvh3vYZ40_kspi_JeO-16" value="&lt;p style=&quot;margin:0px;margin-top:6px;text-align:center;&quot;&gt;&lt;b&gt;Web Server&lt;br&gt;&lt;/b&gt;&lt;/p&gt;&lt;hr&gt;&lt;p style=&quot;margin:0px;margin-left:8px;&quot;&gt;Production ED Map Service web server&lt;br&gt;&lt;/p&gt;" style="align=left;overflow=fill;html=1;dropTarget=0;whiteSpace=wrap;" vertex="1" parent="1">
          <mxGeometry x="570" y="270" width="140" height="90" as="geometry" />
        </mxCell>
        <mxCell id="LwAvh3vYZ40_kspi_JeO-17" value="" style="shape=component;jettyWidth=8;jettyHeight=4;" vertex="1" parent="LwAvh3vYZ40_kspi_JeO-16">
          <mxGeometry x="1" width="20" height="20" relative="1" as="geometry">
            <mxPoint x="-24" y="4" as="offset" />
          </mxGeometry>
        </mxCell>
        <mxCell id="LwAvh3vYZ40_kspi_JeO-23" style="edgeStyle=none;rounded=0;orthogonalLoop=1;jettySize=auto;html=1;exitX=0;exitY=0.5;exitDx=0;exitDy=0;exitPerimeter=0;" edge="1" parent="1" source="LwAvh3vYZ40_kspi_JeO-22" target="LwAvh3vYZ40_kspi_JeO-13">
          <mxGeometry relative="1" as="geometry" />
        </mxCell>
        <mxCell id="LwAvh3vYZ40_kspi_JeO-22" value="Cloud storage" style="strokeWidth=2;html=1;shape=mxgraph.flowchart.database;whiteSpace=wrap;" vertex="1" parent="1">
          <mxGeometry x="800" y="260" width="90" height="90" as="geometry" />
        </mxCell>
        <mxCell id="LwAvh3vYZ40_kspi_JeO-26" style="edgeStyle=none;rounded=0;orthogonalLoop=1;jettySize=auto;html=1;exitX=0.5;exitY=0;exitDx=0;exitDy=0;" edge="1" parent="1" source="LwAvh3vYZ40_kspi_JeO-24" target="LwAvh3vYZ40_kspi_JeO-16">
          <mxGeometry relative="1" as="geometry" />
        </mxCell>
        <mxCell id="LwAvh3vYZ40_kspi_JeO-24" value="&lt;p style=&quot;margin:0px;margin-top:6px;text-align:center;&quot;&gt;&lt;b&gt;User Device&lt;br&gt;&lt;/b&gt;&lt;/p&gt;&lt;hr&gt;&lt;p style=&quot;margin:0px;margin-left:8px;&quot;&gt;Computer and/or mobile phones&lt;br&gt;&lt;/p&gt;" style="align=left;overflow=fill;html=1;dropTarget=0;whiteSpace=wrap;" vertex="1" parent="1">
          <mxGeometry x="430" y="520" width="180" height="90" as="geometry" />
        </mxCell>
        <mxCell id="LwAvh3vYZ40_kspi_JeO-25" value="" style="shape=component;jettyWidth=8;jettyHeight=4;" vertex="1" parent="LwAvh3vYZ40_kspi_JeO-24">
          <mxGeometry x="1" width="20" height="20" relative="1" as="geometry">
            <mxPoint x="-24" y="4" as="offset" />
          </mxGeometry>
        </mxCell>
      </root>
    </mxGraphModel>
  </diagram>
</mxfile>
